<svg width="104" height="24" viewBox="0 0 104 24" fill="none" xmlns="http://www.w3.org/2000/svg">
<path d="M5.70484 21.98C4.67818 21.98 3.75818 21.7467 2.94484 21.28C2.13151 20.8267 1.51151 20.2067 1.08484 19.42L2.40484 18.16C2.77818 18.7333 3.25818 19.1867 3.84484 19.52C4.43151 19.8667 5.05818 20.04 5.72484 20.04C6.27151 20.04 6.75818 19.92 7.18484 19.68C7.61151 19.4533 7.94484 19.1333 8.18484 18.72C8.43818 18.2933 8.56484 17.8067 8.56484 17.26C8.56484 16.7267 8.44484 16.26 8.20484 15.86C7.96484 15.4467 7.64484 15.1333 7.24484 14.92C6.84484 14.6933 6.38484 14.58 5.86484 14.58C5.35818 14.58 4.88484 14.6933 4.44484 14.92C4.00484 15.1467 3.64484 15.4667 3.36484 15.88H1.42484L3.04484 7.58H9.98484V9.6H4.64484L3.92484 13.48C4.15151 13.24 4.45818 13.0467 4.84484 12.9C5.23151 12.74 5.67151 12.66 6.16484 12.66C7.05818 12.66 7.85151 12.86 8.54484 13.26C9.25151 13.6467 9.80484 14.18 10.2048 14.86C10.6182 15.54 10.8248 16.3267 10.8248 17.22C10.8248 18.1667 10.5982 18.9933 10.1448 19.7C9.69151 20.42 9.07818 20.98 8.30484 21.38C7.53151 21.78 6.66484 21.98 5.70484 21.98ZM22.7405 13.14C22.7405 14.3133 22.5138 15.36 22.0605 16.28C21.6205 17.1867 21.0138 17.9 20.2405 18.42C19.4805 18.94 18.6071 19.2 17.6205 19.2C16.6471 19.2 15.7738 18.94 15.0005 18.42C14.2271 17.9 13.6138 17.1867 13.1605 16.28C12.7205 15.36 12.5005 14.3133 12.5005 13.14C12.5005 11.9667 12.7205 10.9267 13.1605 10.02C13.6138 9.1 14.2271 8.38 15.0005 7.86C15.7738 7.32667 16.6471 7.06 17.6205 7.06C18.6071 7.06 19.4805 7.32667 20.2405 7.86C21.0138 8.38 21.6205 9.1 22.0605 10.02C22.5138 10.9267 22.7405 11.9667 22.7405 13.14ZM20.5005 13.14C20.5005 12.34 20.3805 11.64 20.1405 11.04C19.9005 10.4267 19.5605 9.95333 19.1205 9.62C18.6805 9.27333 18.1805 9.1 17.6205 9.1C17.0471 9.1 16.5405 9.27333 16.1005 9.62C15.6605 9.95333 15.3138 10.4267 15.0605 11.04C14.8205 11.64 14.7005 12.34 14.7005 13.14C14.7005 13.94 14.8205 14.64 15.0605 15.24C15.3138 15.84 15.6605 16.3133 16.1005 16.66C16.5405 16.9933 17.0471 17.16 17.6205 17.16C18.1805 17.16 18.6738 16.9933 19.1005 16.66C19.5405 16.3133 19.8805 15.84 20.1205 15.24C20.3738 14.64 20.5005 13.94 20.5005 13.14ZM35.0256 13.14C35.0256 14.3133 34.799 15.36 34.3456 16.28C33.9056 17.1867 33.299 17.9 32.5256 18.42C31.7656 18.94 30.8923 19.2 29.9056 19.2C28.9323 19.2 28.059 18.94 27.2856 18.42C26.5123 17.9 25.899 17.1867 25.4456 16.28C25.0056 15.36 24.7856 14.3133 24.7856 13.14C24.7856 11.9667 25.0056 10.9267 25.4456 10.02C25.899 9.1 26.5123 8.38 27.2856 7.86C28.059 7.32667 28.9323 7.06 29.9056 7.06C30.8923 7.06 31.7656 7.32667 32.5256 7.86C33.299 8.38 33.9056 9.1 34.3456 10.02C34.799 10.9267 35.0256 11.9667 35.0256 13.14ZM32.7856 13.14C32.7856 12.34 32.6656 11.64 32.4256 11.04C32.1856 10.4267 31.8456 9.95333 31.4056 9.62C30.9656 9.27333 30.4656 9.1 29.9056 9.1C29.3323 9.1 28.8256 9.27333 28.3856 9.62C27.9456 9.95333 27.599 10.4267 27.3456 11.04C27.1056 11.64 26.9856 12.34 26.9856 13.14C26.9856 13.94 27.1056 14.64 27.3456 15.24C27.599 15.84 27.9456 16.3133 28.3856 16.66C28.8256 16.9933 29.3323 17.16 29.9056 17.16C30.4656 17.16 30.959 16.9933 31.3856 16.66C31.8256 16.3133 32.1656 15.84 32.4056 15.24C32.659 14.64 32.7856 13.94 32.7856 13.14ZM40.9922 14.06V12.08H46.6922V14.06H40.9922ZM40.9922 16.68V15.32H47.7322V16.68H40.9922ZM42.5722 19V4.8H47.6322C48.3122 4.8 48.9189 4.93333 49.4522 5.2C49.9989 5.46667 50.4589 5.82 50.8322 6.26C51.2189 6.7 51.5122 7.19333 51.7122 7.74C51.9255 8.28667 52.0322 8.84667 52.0322 9.42C52.0322 10.2067 51.8589 10.96 51.5122 11.68C51.1789 12.3867 50.6922 12.96 50.0522 13.4C49.4255 13.84 48.6522 14.06 47.7322 14.06H44.8322V19H42.5722ZM44.8322 12.08H47.6122C48.1322 12.08 48.5455 11.9667 48.8522 11.74C49.1722 11.5 49.3989 11.18 49.5322 10.78C49.6789 10.38 49.7522 9.92667 49.7522 9.42C49.7522 8.9 49.6655 8.44 49.4922 8.04C49.3322 7.64 49.0789 7.33333 48.7322 7.12C48.3989 6.89333 47.9789 6.78 47.4722 6.78H44.8322V12.08Z" fill="black"/>
<path d="M69.6939 11.968H63.8539V10.672H71.9179L66.2059 22.032H64.6059L69.6939 11.968ZM72.6724 20C72.6724 19.5733 72.7044 19.1733 72.7684 18.8C72.843 18.4267 72.971 18.0693 73.1524 17.728C73.3444 17.3867 73.611 17.0613 73.9524 16.752C74.2937 16.432 74.7364 16.1227 75.2804 15.824C75.6004 15.6427 75.9204 15.472 76.2404 15.312C76.571 15.152 76.875 14.9813 77.1524 14.8C77.4404 14.6187 77.6697 14.4213 77.8404 14.208C78.011 13.984 78.0964 13.728 78.0964 13.44C78.0964 13.1947 78.0217 12.96 77.8724 12.736C77.7337 12.5013 77.5204 12.3147 77.2324 12.176C76.955 12.0267 76.6084 11.952 76.1924 11.952C75.8724 11.952 75.579 11.9947 75.3124 12.08C75.0564 12.1653 74.8217 12.2773 74.6084 12.416C74.4057 12.544 74.2244 12.6827 74.0644 12.832C73.915 12.9707 73.787 13.0987 73.6804 13.216L72.8004 12.224C72.8857 12.128 73.0297 12 73.2324 11.84C73.435 11.6693 73.691 11.4987 74.0004 11.328C74.3097 11.1573 74.667 11.0133 75.0724 10.896C75.4884 10.768 75.9417 10.704 76.4324 10.704C77.0937 10.704 77.659 10.8213 78.1284 11.056C78.6084 11.28 78.9764 11.5893 79.2324 11.984C79.4884 12.368 79.6164 12.8 79.6164 13.28C79.6164 13.696 79.5257 14.0587 79.3444 14.368C79.1737 14.6773 78.9497 14.9493 78.6724 15.184C78.4057 15.4187 78.123 15.6213 77.8244 15.792C77.5364 15.952 77.275 16.0907 77.0404 16.208C76.5604 16.4427 76.1497 16.656 75.8084 16.848C75.467 17.04 75.1844 17.232 74.9604 17.424C74.747 17.6053 74.571 17.7973 74.4324 18C74.3044 18.2027 74.2084 18.4427 74.1444 18.72H79.7924V20H72.6724ZM89.5069 15.312C89.5069 16.2507 89.3309 17.088 88.9789 17.824C88.6269 18.5493 88.1469 19.12 87.5389 19.536C86.9309 19.952 86.2375 20.16 85.4589 20.16C84.6802 20.16 83.9869 19.952 83.3789 19.536C82.7709 19.12 82.2909 18.5493 81.9389 17.824C81.5869 17.088 81.4109 16.2507 81.4109 15.312C81.4109 14.3733 81.5869 13.5413 81.9389 12.816C82.2909 12.08 82.7709 11.504 83.3789 11.088C83.9869 10.6613 84.6802 10.448 85.4589 10.448C86.2375 10.448 86.9309 10.6613 87.5389 11.088C88.1469 11.504 88.6269 12.08 88.9789 12.816C89.3309 13.5413 89.5069 14.3733 89.5069 15.312ZM88.0829 15.312C88.0829 14.608 87.9709 13.9893 87.7469 13.456C87.5229 12.9227 87.2135 12.5067 86.8189 12.208C86.4242 11.9093 85.9709 11.76 85.4589 11.76C84.9362 11.76 84.4775 11.9093 84.0829 12.208C83.6882 12.5067 83.3789 12.9227 83.1549 13.456C82.9309 13.9893 82.8189 14.608 82.8189 15.312C82.8189 16.016 82.9309 16.6347 83.1549 17.168C83.3789 17.6907 83.6882 18.1013 84.0829 18.4C84.4775 18.6987 84.9362 18.848 85.4589 18.848C85.9709 18.848 86.4242 18.6987 86.8189 18.4C87.2135 18.1013 87.5229 17.6907 87.7469 17.168C87.9709 16.6347 88.0829 16.016 88.0829 15.312ZM94.4219 15.92V14.64H98.9179V15.92H94.4219ZM94.4219 18.064V16.944H99.7179V18.064H94.4219ZM95.7659 20V8.64H99.7019C100.246 8.64 100.726 8.74667 101.142 8.96C101.569 9.16267 101.931 9.44 102.23 9.792C102.529 10.1333 102.753 10.5227 102.902 10.96C103.062 11.3867 103.142 11.824 103.142 12.272C103.142 12.8907 103.014 13.4827 102.758 14.048C102.502 14.6027 102.123 15.056 101.622 15.408C101.131 15.7493 100.523 15.92 99.7979 15.92H97.2059V20H95.7659ZM97.2059 14.64H99.7179C100.219 14.64 100.614 14.5333 100.902 14.32C101.19 14.1067 101.393 13.8187 101.51 13.456C101.627 13.0933 101.686 12.6987 101.686 12.272C101.686 11.824 101.611 11.424 101.462 11.072C101.323 10.7093 101.099 10.4267 100.79 10.224C100.481 10.0213 100.086 9.92 99.6059 9.92H97.2059V14.64Z" fill="#DEDBDB"/>
<path d="M63.4219 15.024H103.574V15.824H63.4219V15.024Z" fill="#DEDBDB"/>
</svg>
