<svg width="45" height="44" viewBox="0 0 45 44" fill="none" xmlns="http://www.w3.org/2000/svg">
<path d="M24 38.6666V25.3333" stroke="white" stroke-width="2" stroke-linecap="round" stroke-linejoin="round"/>
<path d="M16 38.6666V17.3333" stroke="white" stroke-width="2" stroke-linecap="round" stroke-linejoin="round"/>
<path d="M8 38.6667V30.6667" stroke="white" stroke-width="2" stroke-linecap="round" stroke-linejoin="round"/>
<circle cx="34" cy="11" r="11" fill="#F05A00"/>
<path d="M37.2816 10.777C37.2816 11.4223 37.1606 11.998 36.9186 12.504C36.6766 13.0027 36.3466 13.395 35.9286 13.681C35.5106 13.967 35.0339 14.11 34.4986 14.11C33.9632 14.11 33.4866 13.967 33.0686 13.681C32.6506 13.395 32.3206 13.0027 32.0786 12.504C31.8366 11.998 31.7156 11.4223 31.7156 10.777C31.7156 10.1317 31.8366 9.55967 32.0786 9.061C32.3206 8.555 32.6506 8.159 33.0686 7.873C33.4866 7.57967 33.9632 7.433 34.4986 7.433C35.0339 7.433 35.5106 7.57967 35.9286 7.873C36.3466 8.159 36.6766 8.555 36.9186 9.061C37.1606 9.55967 37.2816 10.1317 37.2816 10.777ZM36.3026 10.777C36.3026 10.293 36.2256 9.86767 36.0716 9.501C35.9176 9.13433 35.7049 8.84833 35.4336 8.643C35.1622 8.43767 34.8506 8.335 34.4986 8.335C34.1392 8.335 33.8239 8.43767 33.5526 8.643C33.2812 8.84833 33.0686 9.13433 32.9146 9.501C32.7606 9.86767 32.6836 10.293 32.6836 10.777C32.6836 11.261 32.7606 11.6863 32.9146 12.053C33.0686 12.4123 33.2812 12.6947 33.5526 12.9C33.8239 13.1053 34.1392 13.208 34.4986 13.208C34.8506 13.208 35.1622 13.1053 35.4336 12.9C35.7049 12.6947 35.9176 12.4123 36.0716 12.053C36.2256 11.6863 36.3026 11.261 36.3026 10.777Z" fill="white"/>
</svg>
