<svg width="87" height="16" viewBox="0 0 87 16" fill="none" xmlns="http://www.w3.org/2000/svg">
<path d="M21.036 13V5.706H24.676C25.0867 5.706 25.432 5.79467 25.712 5.972C25.992 6.14 26.202 6.35933 26.342 6.63C26.4913 6.90067 26.566 7.19 26.566 7.498C26.566 7.89 26.4727 8.24467 26.286 8.562C26.0993 8.87 25.8287 9.10333 25.474 9.262C25.894 9.38333 26.2347 9.60267 26.496 9.92C26.7573 10.2373 26.888 10.62 26.888 11.068C26.888 11.46 26.79 11.8007 26.594 12.09C26.4073 12.3793 26.146 12.6033 25.81 12.762C25.4833 12.9207 25.1053 13 24.676 13H21.036ZM21.946 12.314H24.648C24.8907 12.314 25.11 12.2533 25.306 12.132C25.5113 12.0013 25.67 11.8333 25.782 11.628C25.9033 11.4227 25.964 11.208 25.964 10.984C25.964 10.7413 25.908 10.522 25.796 10.326C25.684 10.1207 25.5347 9.95733 25.348 9.836C25.1613 9.71467 24.9467 9.654 24.704 9.654H21.946V12.314ZM21.946 8.996H24.424C24.6667 8.996 24.8813 8.93067 25.068 8.8C25.2547 8.66933 25.3993 8.50133 25.502 8.296C25.6047 8.09067 25.656 7.876 25.656 7.652C25.656 7.316 25.544 7.022 25.32 6.77C25.1053 6.518 24.8253 6.392 24.48 6.392H21.946V8.996ZM32.0965 13V5.706H33.0485V8.842H37.2205V5.706H38.1725V13H37.2205V9.696H33.0485V13H32.0965ZM39.6847 10.9C39.6847 10.4427 39.8153 10.0507 40.0767 9.724C40.338 9.388 40.6973 9.13133 41.1547 8.954C41.6213 8.76733 42.158 8.674 42.7647 8.674C43.1193 8.674 43.488 8.702 43.8707 8.758C44.2533 8.814 44.594 8.898 44.8927 9.01V8.394C44.8927 7.778 44.7107 7.288 44.3467 6.924C43.9827 6.56 43.4787 6.378 42.8347 6.378C42.4427 6.378 42.0553 6.45267 41.6727 6.602C41.2993 6.742 40.9073 6.952 40.4967 7.232L40.1327 6.56C40.6087 6.23333 41.0753 5.99067 41.5327 5.832C41.99 5.664 42.4567 5.58 42.9327 5.58C43.8287 5.58 44.538 5.83667 45.0607 6.35C45.5833 6.86333 45.8447 7.57267 45.8447 8.478V11.852C45.8447 11.9827 45.8727 12.0807 45.9287 12.146C45.9847 12.202 46.0733 12.2347 46.1947 12.244V13C46.092 13.0093 46.0033 13.0187 45.9287 13.028C45.854 13.0373 45.798 13.0373 45.7607 13.028C45.5273 13.0187 45.35 12.944 45.2287 12.804C45.1073 12.664 45.042 12.5147 45.0327 12.356L45.0187 11.824C44.692 12.244 44.2673 12.5707 43.7447 12.804C43.222 13.028 42.69 13.14 42.1487 13.14C41.682 13.14 41.2573 13.042 40.8747 12.846C40.5013 12.6407 40.2073 12.37 39.9927 12.034C39.7873 11.6887 39.6847 11.3107 39.6847 10.9ZM44.5707 11.46C44.6733 11.3293 44.7527 11.2033 44.8087 11.082C44.8647 10.9607 44.8927 10.8533 44.8927 10.76V9.696C44.5753 9.57467 44.244 9.48133 43.8987 9.416C43.5627 9.35067 43.222 9.318 42.8767 9.318C42.1953 9.318 41.6447 9.45333 41.2247 9.724C40.8047 9.99467 40.5947 10.3633 40.5947 10.83C40.5947 11.1007 40.6647 11.3573 40.8047 11.6C40.9447 11.8333 41.15 12.0293 41.4207 12.188C41.6913 12.3373 42.0087 12.412 42.3727 12.412C42.83 12.412 43.2547 12.3233 43.6467 12.146C44.048 11.9687 44.356 11.74 44.5707 11.46ZM47.2016 13.042V12.174C47.4536 12.174 47.6776 12.1087 47.8736 11.978C48.0696 11.838 48.2422 11.6047 48.3916 11.278C48.5502 10.9513 48.6762 10.5033 48.7696 9.934C48.8629 9.35533 48.9236 8.62267 48.9516 7.736L49.0356 5.706H53.7676V13H52.8156V6.56H49.8756L49.8476 7.82C49.8102 8.828 49.7309 9.67267 49.6096 10.354C49.4882 11.026 49.3156 11.558 49.0916 11.95C48.8769 12.342 48.6109 12.622 48.2936 12.79C47.9762 12.958 47.6122 13.042 47.2016 13.042ZM55.8583 13V5.72H56.8103V11.712L61.2483 5.706H62.1023V13H61.1503V7.106L56.7823 13H55.8583ZM68.3568 13V9.948C68.0581 10.088 67.7454 10.1953 67.4188 10.27C67.0921 10.3353 66.7421 10.368 66.3688 10.368C65.5661 10.368 64.9594 10.1627 64.5488 9.752C64.1474 9.34133 63.9468 8.71133 63.9468 7.862V5.706H64.8988V7.736C64.8988 8.38933 65.0294 8.86533 65.2908 9.164C65.5614 9.46267 65.9908 9.612 66.5788 9.612C66.9054 9.612 67.2321 9.57467 67.5588 9.5C67.8854 9.42533 68.1514 9.32733 68.3568 9.206V5.706H69.3088V13H68.3568ZM71.3895 13V5.72H72.3415V11.712L76.7795 5.706H77.6335V13H76.6815V7.106L72.3135 13H71.3895ZM79.702 13V5.72H80.654V11.712L85.092 5.706H85.946V13H84.994V7.106L80.626 13H79.702Z" fill="#126935"/>
<path d="M13.3327 4L5.99935 11.3333L2.66602 8" stroke="#126935" stroke-linecap="round" stroke-linejoin="round"/>
</svg>
